<svg width="47" height="45" viewBox="0 0 47 45" fill="none" xmlns="http://www.w3.org/2000/svg">
<g clip-path="url(#clip0_139_1007)">
<path d="M10.5276 27.1941L8.92638 33.0416L3.07405 33.1627C1.32506 29.9893 0.333008 26.3584 0.333008 22.5C0.333008 18.769 1.26055 15.2505 2.9047 12.1525H2.90595L8.11617 13.0869L10.3986 18.1533C9.92086 19.5157 9.6605 20.9782 9.6605 22.5C9.66068 24.1516 9.9665 25.7341 10.5276 27.1941Z" fill="#FBBB00"/>
<path d="M45.9314 18.2967C46.1955 19.6578 46.3332 21.0634 46.3332 22.5C46.3332 24.1109 46.1601 25.6822 45.8303 27.1978C44.7106 32.3555 41.7851 36.8592 37.7323 40.0463L37.731 40.0451L31.1685 39.7175L30.2397 34.0455C32.9289 32.5027 35.0305 30.0882 36.1376 27.1978H23.8389V18.2967H36.317H45.9314Z" fill="#518EF8"/>
<path d="M37.7309 40.0451L37.7322 40.0463C33.7906 43.1456 28.7836 45 23.3332 45C14.5742 45 6.95897 40.2108 3.07422 33.1628L10.5277 27.1942C12.4701 32.2653 17.4707 35.8752 23.3332 35.8752C25.853 35.8752 28.2138 35.2088 30.2395 34.0455L37.7309 40.0451Z" fill="#28B446"/>
<path d="M38.0134 5.17992L30.5624 11.1473C28.4659 9.86537 25.9877 9.1248 23.3326 9.1248C17.3374 9.1248 12.2433 12.9003 10.3983 18.1533L2.90555 12.1525H2.9043C6.73218 4.93269 14.4435 0 23.3326 0C28.9133 0 34.0301 1.94467 38.0134 5.17992Z" fill="#F14336"/>
</g>
<defs>
<clipPath id="clip0_139_1007">
<rect width="46" height="45" fill="white" transform="translate(0.333008)"/>
</clipPath>
</defs>
</svg>
