<svg width="46" height="45" viewBox="0 0 46 45" fill="none" xmlns="http://www.w3.org/2000/svg">
<g clip-path="url(#clip0_139_1000)">
<path fill-rule="evenodd" clip-rule="evenodd" d="M45.7275 29.3447V15.7101C45.7275 3.25638 42.7241 0.293411 30.0002 0.293411C-1.11543 0.0979419 0.110715 -1.14096 0.319461 29.3217C0.319461 41.7754 3.32282 44.7384 16.0468 44.7384H26.6081C40.1268 44.9667 46.0674 44.0568 45.7275 29.3447ZM36.9774 32.0072H33.6662C32.4127 32.0072 32.0345 31.0115 29.7876 28.8126C27.8246 26.9606 26.9968 26.729 26.5003 26.729C25.8143 26.729 25.6251 26.9142 25.6251 27.84V30.7565C25.6251 31.5436 25.3652 32.0067 23.26 32.0067C19.7597 32.0067 15.905 29.9231 13.1612 26.0808C9.0461 20.4558 7.93439 16.1962 7.93439 15.3398C7.93439 14.8537 8.1235 14.4136 9.06956 14.4136H12.3808C13.232 14.4136 13.5394 14.7839 13.8707 15.6403C15.2281 19.9968 19.8774 27.2461 19.9488 23.0709V18.3023C19.8071 16.1264 18.6245 15.9412 18.6245 15.1542C18.6245 14.8068 18.9558 14.4136 19.4757 14.4136H24.6786C25.3881 14.4136 25.6247 14.7609 25.6247 15.5939V22.0293C25.7147 23.5725 26.6952 22.9654 27.6824 21.96C30.0711 19.3673 31.7501 15.3393 31.7501 15.3393C31.9632 14.8533 32.3414 14.4136 33.1927 14.4136H36.5039C37.4973 14.4136 37.7099 14.8997 37.4973 15.5943C37.0952 17.4923 33.051 23.0479 33.051 23.0714C32.6962 23.6039 32.5545 23.8818 33.051 24.5067C34.0042 25.6697 40.9503 31.8112 36.9774 32.0072Z" fill="#2787F5"/>
</g>
<defs>
<clipPath id="clip0_139_1000">
<rect width="46" height="45" fill="white"/>
</clipPath>
</defs>
</svg>
